<?xml version="1.0" encoding="UTF-8" standalone="no"?>
<svg
   xmlns:dc="http://purl.org/dc/elements/1.1/"
   xmlns:cc="http://creativecommons.org/ns#"
   xmlns:rdf="http://www.w3.org/1999/02/22-rdf-syntax-ns#"
   xmlns:svg="http://www.w3.org/2000/svg"
   xmlns="http://www.w3.org/2000/svg"
   xmlns:sodipodi="http://sodipodi.sourceforge.net/DTD/sodipodi-0.dtd"
   xmlns:inkscape="http://www.inkscape.org/namespaces/inkscape"
   sodipodi:docname="alodokter.svg"
   inkscape:version="1.0 (1.0+r73+1)"
   id="svg8"
   version="1.1"
   viewBox="0 0 273.93613 169.30183"
   height="169.30183mm"
   width="273.93613mm">
  <defs
     id="defs2" />
  <sodipodi:namedview
     inkscape:document-rotation="0"
     inkscape:window-maximized="1"
     inkscape:window-y="24"
     inkscape:window-x="0"
     inkscape:window-height="718"
     inkscape:window-width="1366"
     inkscape:bbox-nodes="true"
     inkscape:snap-bbox-midpoints="true"
     inkscape:snap-bbox-edge-midpoints="true"
     inkscape:snap-bbox="true"
     inkscape:guide-bbox="true"
     showguides="true"
     showgrid="false"
     inkscape:current-layer="layer1"
     inkscape:document-units="mm"
     inkscape:cy="-52.994039"
     inkscape:cx="898.39838"
     inkscape:zoom="0.24748738"
     inkscape:pageshadow="2"
     inkscape:pageopacity="0.0"
     borderopacity="1.0"
     bordercolor="#666666"
     pagecolor="#ffffff"
     id="base" />
  <metadata
     id="metadata5">
    <rdf:RDF>
      <cc:Work
         rdf:about="">
        <dc:format>image/svg+xml</dc:format>
        <dc:type
           rdf:resource="http://purl.org/dc/dcmitype/StillImage" />
        <dc:title />
      </cc:Work>
    </rdf:RDF>
  </metadata>
  <g
     transform="translate(86.796532,-20.833525)"
     id="layer1"
     inkscape:groupmode="layer"
     inkscape:label="Layer 1">
    <g
       id="g949">
      <path
         id="rect912"
         style="fill:#ffffff;fill-opacity:1;fill-rule:evenodd;stroke:none;stroke-width:9.38061;stroke-linecap:butt;stroke-linejoin:miter;stroke-miterlimit:4;stroke-dasharray:none;stroke-dashoffset:0;stroke-opacity:1"
         d="M -84.038847,20.833525 H 184.38191 c 1.52776,0 2.75769,1.229927 2.75769,2.757685 v 163.78646 c 0,1.52776 -1.22993,2.75769 -2.75769,2.75769 H -84.038847 c -1.527757,0 -2.757685,-1.22993 -2.757685,-2.75769 V 23.59121 c 0,-1.527758 1.229928,-2.757685 2.757685,-2.757685 z" />
      <g
         id="g933">
        <path
           inkscape:connector-curvature="0"
           id="rect825"
           d="m -40.018952,119.09354 c -2.219113,0 -4.005681,-1.78656 -4.005681,-4.00568 V 94.819363 92.496261 85.4838 l 6.638312,3.00678 h 19.958967 c 2.219113,0 4.005685,1.786568 4.005685,4.005681 v 22.591599 c 0,2.21912 -1.786572,4.00568 -4.005685,4.00568 z"
           style="fill:#3771c8;fill-opacity:0.995495;fill-rule:nonzero;stroke:none;stroke-width:0.112334;stroke-linecap:square;stroke-linejoin:miter;stroke-miterlimit:4;stroke-dasharray:none;stroke-dashoffset:0;stroke-opacity:1" />
        <path
           inkscape:connector-curvature="0"
           id="rect817"
           d="m -36.172199,91.875345 c -2.219112,0 -4.005681,1.786569 -4.005681,4.005681 v 22.591604 c 0,2.21911 1.786569,4.00568 4.005681,4.00568 h 19.958967 l 6.6383097,3.00677 v -7.01245 -2.32311 -20.268494 c 0,-2.219112 -1.7865677,-4.005681 -4.0056807,-4.005681 z"
           style="fill:#2a7fff;fill-opacity:0.995495;fill-rule:nonzero;stroke:none;stroke-width:0.112334;stroke-linecap:square;stroke-linejoin:miter;stroke-miterlimit:4;stroke-dasharray:none;stroke-dashoffset:0;stroke-opacity:1" />
        <path
           id="path1514"
           style="font-style:normal;font-variant:normal;font-weight:normal;font-stretch:normal;font-size:22.7306px;line-height:1.25;font-family:'The Bold Font';-inkscape-font-specification:'The Bold Font';letter-spacing:0px;word-spacing:0px;fill:#ffffff;fill-opacity:1;stroke:none;stroke-width:0.570296"
           d="m -21.569103,114.5847 -0.659186,-2.02302 h -5.250758 l -0.681917,2.02302 h -4.068769 l 5.682638,-16.684227 h 3.636889 l 5.387142,16.684227 z m -4.591572,-5.86448 h 2.704936 l -1.318372,-4.04604 z" />
        <path
           id="path1495"
           style="font-style:normal;font-variant:normal;font-weight:bold;font-stretch:normal;font-size:22.2085px;line-height:1.25;font-family:Comfortaa;-inkscape-font-specification:'Comfortaa Bold';letter-spacing:0px;word-spacing:0px;fill:#000000;fill-opacity:1;stroke:none;stroke-width:0.555212"
           d="m 14.817059,112.53563 q 0.111042,0.28871 0.111042,0.48858 0,0.46638 -0.333127,0.79951 -0.333127,0.33312 -0.821713,0.33312 -0.333127,0 -0.644045,-0.17766 -0.28871,-0.19988 -0.421961,-0.53301 l -1.243674,-3.10918 H 3.490743 l -1.265882,3.10918 q -0.155459,0.33313 -0.444169,0.53301 -0.28871,0.17766 -0.621837,0.17766 -0.488586,0 -0.821713,-0.33312 -0.310919,-0.35534 -0.310919,-0.82172 0,-0.22208 0.111043,-0.51079 L 6.377843,97.589331 q 0.333127,-0.777296 1.088215,-0.777296 0.799505,0 1.088215,0.777296 z M 4.26804,108.42706 h 6.418245 l -3.17581,-7.90621 z" />
        <path
           id="path1497"
           style="font-style:normal;font-variant:normal;font-weight:bold;font-stretch:normal;font-size:22.2085px;line-height:1.25;font-family:Comfortaa;-inkscape-font-specification:'Comfortaa Bold';letter-spacing:0px;word-spacing:0px;fill:#000000;fill-opacity:1;stroke:none;stroke-width:0.555212"
           d="m 18.595274,114.15684 q -0.488586,0 -0.821713,-0.33312 -0.310919,-0.33313 -0.310919,-0.82172 V 97.966875 q 0,-0.488586 0.333127,-0.821713 0.333127,-0.333127 0.799505,-0.333127 0.488586,0 0.821713,0.333127 0.333127,0.333127 0.333127,0.821713 v 13.880285 h 8.039463 q 0.488586,0 0.821713,0.33313 0.333127,0.33313 0.333127,0.82171 0,0.48859 -0.333127,0.82172 -0.333127,0.33312 -0.821713,0.33312 z" />
        <path
           id="path1499"
           style="font-style:normal;font-variant:normal;font-weight:bold;font-stretch:normal;font-size:22.2085px;line-height:1.25;font-family:Comfortaa;-inkscape-font-specification:'Comfortaa Bold';letter-spacing:0px;word-spacing:0px;fill:#000000;fill-opacity:1;stroke:none;stroke-width:0.555212"
           d="m 38.189035,114.37893 q -2.576182,0 -4.597152,-1.13263 -1.998761,-1.13264 -3.109184,-3.15361 -1.110424,-2.04317 -1.110424,-4.61936 0,-2.57618 1.110424,-4.59715 1.110423,-2.020967 3.109184,-3.153598 2.02097,-1.132632 4.597152,-1.132632 2.553973,0 4.552735,1.132632 2.02097,1.132631 3.13139,3.153598 1.13263,2.02097 1.13263,4.59715 0,2.57619 -1.13263,4.61936 -1.11042,2.02097 -3.10918,3.15361 -1.998764,1.13263 -4.574945,1.13263 z m 0,-2.0876 q 1.887719,0 3.397894,-0.88834 1.510171,-0.91054 2.354101,-2.46513 0.84392,-1.5546 0.84392,-3.46452 0,-1.90993 -0.84392,-3.46452 -0.84393,-1.5546 -2.354101,-2.442936 -1.487966,-0.888338 -3.397894,-0.888338 -1.909928,0 -3.420103,0.888338 -1.487967,0.888336 -2.331889,2.442936 -0.843921,1.55459 -0.843921,3.46452 0,1.90992 0.843921,3.46452 0.843922,1.55459 2.354097,2.46513 1.510176,0.88834 3.397895,0.88834 z" />
        <path
           id="path1501"
           style="font-style:normal;font-variant:normal;font-weight:bold;font-stretch:normal;font-size:22.2085px;line-height:1.25;font-family:Comfortaa;-inkscape-font-specification:'Comfortaa Bold';letter-spacing:0px;word-spacing:0px;fill:#000000;fill-opacity:1;stroke:none;stroke-width:0.555212"
           d="m 51.80005,114.15684 q -0.48859,0 -0.82172,-0.33312 -0.33312,-0.33313 -0.33312,-0.82172 V 97.966875 q 0,-0.510795 0.33312,-0.821713 0.33313,-0.333127 0.82172,-0.333127 h 4.01973 q 2.50955,0 4.4639,1.110423 1.95434,1.110423 3.04256,3.086972 1.08821,1.95435 1.08821,4.4639 0,2.50956 -1.08821,4.48611 -1.08822,1.97656 -3.04256,3.08698 -1.95435,1.11042 -4.4639,1.11042 z m 4.01973,-2.04318 q 1.8433,0 3.28685,-0.84392 1.46576,-0.84392 2.26526,-2.35409 0.82172,-1.53239 0.82172,-3.44232 0,-1.90992 -0.82172,-3.4201 -0.7995,-1.51017 -2.26526,-2.354095 -1.44355,-0.843922 -3.28685,-0.843922 h -2.86489 v 13.258447 z" />
        <path
           id="path1503"
           style="font-style:normal;font-variant:normal;font-weight:bold;font-stretch:normal;font-size:22.2085px;line-height:1.25;font-family:Comfortaa;-inkscape-font-specification:'Comfortaa Bold';letter-spacing:0px;word-spacing:0px;fill:#000000;fill-opacity:1;stroke:none;stroke-width:0.555212"
           d="m 75.62244,114.37893 q -2.57618,0 -4.59715,-1.13263 -1.99877,-1.13264 -3.10919,-3.15361 -1.11042,-2.04317 -1.11042,-4.61936 0,-2.57618 1.11042,-4.59715 1.11042,-2.020967 3.10919,-3.153598 2.02097,-1.132632 4.59715,-1.132632 2.55397,0 4.55273,1.132632 2.02097,1.132631 3.1314,3.153598 1.13263,2.02097 1.13263,4.59715 0,2.57619 -1.13263,4.61936 -1.11043,2.02097 -3.10919,3.15361 -1.99876,1.13263 -4.57494,1.13263 z m 0,-2.0876 q 1.88772,0 3.39789,-0.88834 1.51018,-0.91054 2.3541,-2.46513 0.84392,-1.5546 0.84392,-3.46452 0,-1.90993 -0.84392,-3.46452 -0.84392,-1.5546 -2.3541,-2.442936 -1.48796,-0.888338 -3.39789,-0.888338 -1.90993,0 -3.42011,0.888338 -1.48796,0.888336 -2.33188,2.442936 -0.84393,1.55459 -0.84393,3.46452 0,1.90992 0.84393,3.46452 0.84392,1.55459 2.35409,2.46513 1.51018,0.88834 3.3979,0.88834 z" />
        <path
           id="path1505"
           style="font-style:normal;font-variant:normal;font-weight:bold;font-stretch:normal;font-size:22.2085px;line-height:1.25;font-family:Comfortaa;-inkscape-font-specification:'Comfortaa Bold';letter-spacing:0px;word-spacing:0px;fill:#000000;fill-opacity:1;stroke:none;stroke-width:0.555212"
           d="m 89.23345,114.15684 q -0.46638,0 -0.82171,-0.33312 -0.33313,-0.33313 -0.33313,-0.82172 V 97.966875 q 0,-0.488586 0.33313,-0.821713 0.35533,-0.333127 0.82171,-0.333127 0.48859,0 0.82171,0.333127 0.33313,0.333127 0.33313,0.821713 v 6.662535 l 7.351,-7.350997 q 0.2665,-0.266502 0.46638,-0.355336 0.22208,-0.111042 0.48858,-0.111042 0.46638,0 0.71068,0.28871 0.2665,0.266501 0.2665,0.666254 0,0.57742 -0.42196,0.999381 l -5.66316,5.68537 5.7742,7.86179 q 0.22208,0.31092 0.22208,0.71067 0,0.44417 -0.28871,0.79951 -0.28871,0.33312 -0.73288,0.33312 -0.62183,0 -0.95496,-0.48858 l -5.61874,-7.6175 -1.59901,1.599 v 5.35224 q 0,0.48859 -0.33313,0.82172 -0.33312,0.33312 -0.82171,0.33312 z" />
        <path
           id="path1507"
           style="font-style:normal;font-variant:normal;font-weight:bold;font-stretch:normal;font-size:22.2085px;line-height:1.25;font-family:Comfortaa;-inkscape-font-specification:'Comfortaa Bold';letter-spacing:0px;word-spacing:0px;fill:#000000;fill-opacity:1;stroke:none;stroke-width:0.555212"
           d="m 113.7561,96.812035 q 0.46638,0 0.75509,0.310918 0.31092,0.28871 0.31092,0.755088 0,0.466378 -0.31092,0.777296 -0.28871,0.28871 -0.75509,0.28871 h -4.77482 V 113.002 q 0,0.48859 -0.33313,0.82172 -0.33312,0.33312 -0.82171,0.33312 -0.48859,0 -0.82171,-0.33312 -0.33313,-0.33313 -0.33313,-0.82172 V 98.944047 h -4.79703 q -0.46638,0 -0.77729,-0.28871 -0.28871,-0.310918 -0.28871,-0.777296 0,-0.466378 0.28871,-0.755088 0.31091,-0.310918 0.77729,-0.310918 z" />
        <path
           id="path1509"
           style="font-style:normal;font-variant:normal;font-weight:bold;font-stretch:normal;font-size:22.2085px;line-height:1.25;font-family:Comfortaa;-inkscape-font-specification:'Comfortaa Bold';letter-spacing:0px;word-spacing:0px;fill:#000000;fill-opacity:1;stroke:none;stroke-width:0.555212"
           d="m 118.51218,114.15684 q -0.48858,0 -0.82171,-0.33312 -0.33313,-0.33313 -0.33313,-0.82172 V 97.966875 q 0,-0.510795 0.33313,-0.821713 0.33313,-0.333127 0.82171,-0.333127 h 10.03823 q 0.51079,0 0.82171,0.310918 0.31092,0.28871 0.31092,0.777296 0,0.466378 -0.31092,0.755088 -0.31092,0.28871 -0.82171,0.28871 h -8.88339 v 5.396653 h 6.37383 q 0.48859,0 0.79951,0.31092 0.33312,0.28871 0.33312,0.75509 0,0.46638 -0.33312,0.7773 -0.31092,0.28871 -0.79951,0.28871 h -6.37383 v 5.55211 h 8.88339 q 0.51079,0 0.82171,0.28871 0.31092,0.28871 0.31092,0.75509 0,0.48859 -0.31092,0.7995 -0.31092,0.28871 -0.82171,0.28871 z" />
        <path
           id="path1511"
           style="font-style:normal;font-variant:normal;font-weight:bold;font-stretch:normal;font-size:22.2085px;line-height:1.25;font-family:Comfortaa;-inkscape-font-specification:'Comfortaa Bold';letter-spacing:0px;word-spacing:0px;fill:#000000;fill-opacity:1;stroke:none;stroke-width:0.555212"
           d="m 144.14561,112.38017 q 0.22209,0.35533 0.22209,0.73288 0,0.44417 -0.31092,0.75508 -0.28871,0.28871 -0.79951,0.28871 -0.64404,0 -0.99938,-0.55521 l -3.81985,-6.12953 h -0.39975 -2.84269 v 5.5299 q 0,0.48859 -0.33312,0.82172 -0.31092,0.33312 -0.82172,0.33312 -0.48858,0 -0.82171,-0.33312 -0.33313,-0.33313 -0.33313,-0.82172 V 97.966875 q 0,-0.510795 0.33313,-0.821713 0.33313,-0.333127 0.82171,-0.333127 h 3.99753 q 1.64342,0 2.93151,0.688462 1.3103,0.688462 2.02097,1.932136 0.73288,1.243677 0.73288,2.842687 0,1.5768 -0.7995,2.79826 -0.79951,1.22147 -2.17643,1.8433 z m -6.10732,-7.04009 q 1.51017,0 2.48734,-0.84392 0.97718,-0.86613 0.97718,-2.22084 0,-1.46576 -0.97718,-2.398517 -0.97717,-0.932756 -2.48734,-0.932756 h -2.84269 v 6.396033 z" />
      </g>
    </g>
  </g>
</svg>
