<?xml version="1.0" encoding="UTF-8" standalone="no"?>
<svg
   xmlns:dc="http://purl.org/dc/elements/1.1/"
   xmlns:cc="http://creativecommons.org/ns#"
   xmlns:rdf="http://www.w3.org/1999/02/22-rdf-syntax-ns#"
   xmlns:svg="http://www.w3.org/2000/svg"
   xmlns="http://www.w3.org/2000/svg"
   id="svg8"
   version="1.1"
   viewBox="0 0 996.4068 679.95966"
   height="679.95966mm"
   width="996.4068mm">
  <defs
     id="defs2" />
  <metadata
     id="metadata5">
    <rdf:RDF>
      <cc:Work
         rdf:about="">
        <dc:format>image/svg+xml</dc:format>
        <dc:type
           rdf:resource="http://purl.org/dc/dcmitype/StillImage" />
      </cc:Work>
    </rdf:RDF>
  </metadata>
  <g
     transform="translate(99.291534,206.41325)"
     id="layer1">
    <g
       transform="translate(72.697312,2.1381562)"
       id="gobank">
      <rect
         style="opacity:1;fill:#ffffff;fill-opacity:1;fill-rule:evenodd;stroke:none;stroke-width:23.18348885;stroke-linecap:butt;stroke-linejoin:bevel;stroke-miterlimit:4;stroke-dasharray:none;stroke-dashoffset:0;stroke-opacity:1"
         id="rect1002"
         width="996.4068"
         height="679.95966"
         x="-171.98885"
         y="-208.55141" />
      <g
         id="g976"
         transform="translate(-1112.0598,-204.99615)">
        <g
           transform="translate(798.50693,-251.7652)"
           id="g940">
          <path
             style="opacity:1;fill:#37abc8;fill-opacity:1;fill-rule:evenodd;stroke:none;stroke-width:16.80105209;stroke-linecap:round;stroke-linejoin:round;stroke-miterlimit:4;stroke-dasharray:none;stroke-dashoffset:0;stroke-opacity:1"
             d="m 286.18426,515.225 c -5.77463,0 -10.42365,4.64903 -10.42365,10.42366 0,5.77462 4.64902,10.42365 10.42365,10.42365 h 21.50204 c 5.77463,0 10.42366,-4.64903 10.42366,-10.42365 0,-5.77463 -4.64903,-10.42366 -10.42366,-10.42366 z m 55.02041,0 c -5.25631,0 -9.48779,4.232 -9.48779,9.48831 v 1.87121 c 0,5.2563 4.23148,9.48779 9.48779,9.48779 h 29.2871 c 5.77463,0 10.42365,4.64903 10.42365,10.42365 0,5.77463 -4.64902,10.42314 -10.42365,10.42314 h -26.02218 c -5.77463,0 -10.42365,4.64903 -10.42365,10.42365 0,5.77463 4.64902,10.42366 10.42365,10.42366 h 37.92998 2.33061 c 5.77463,0 10.42365,4.64899 10.42365,10.42365 0,5.77466 -4.64902,10.42313 -10.42365,10.42313 h -2.24069 -18.95181 c -5.77463,0 -10.42366,4.64903 -10.42366,10.42366 0,5.77462 4.64903,10.42365 10.42366,10.42365 h 25.22223 15.99334 c 0.51462,0 1.01987,0.0387 1.51412,0.11007 h -6.19136 c 5.77463,0 10.42366,4.64899 10.42366,10.42365 0,5.25879 -3.85592,9.58232 -8.90592,10.31307 h -12.7186 c -5.58725,0 -10.08518,4.49792 -10.08518,10.08517 v 0.67645 c 0,5.58725 4.49793,10.08569 10.08518,10.08569 h 65.70968 0.60564 c 0.4835,0 0.95821,-0.0361 1.42317,-0.10129 a 72.964568,72.964568 0 0 0 70.93572,-72.86377 72.964568,72.964568 0 0 0 -68.19273,-72.79555 c -0.57858,-0.10944 -1.17511,-0.16899 -1.78646,-0.16899 h -2.98534 z"
             id="path929" />
          <g
             id="g927"
             transform="translate(152.4168,117.9929)">
            <path
               d="m 329.54196,485.15774 a 29.934185,29.934185 0 0 1 -31.76363,14.39191 29.934185,29.934185 0 0 1 -23.83823,-25.45181 29.934185,29.934185 0 0 1 16.43854,-30.75435 29.934185,29.934185 0 0 1 34.40622,5.68049"
               id="path918"
               style="opacity:1;fill:none;fill-opacity:1;fill-rule:evenodd;stroke:#ffffff;stroke-width:19.84375;stroke-linecap:round;stroke-linejoin:round;stroke-miterlimit:4;stroke-dasharray:none;stroke-dashoffset:0;stroke-opacity:1" />
            <path
               id="path920"
               d="M 329.61212,499.98238 V 474.43331"
               style="fill:none;stroke:#ffffff;stroke-width:19.84375;stroke-linecap:round;stroke-linejoin:miter;stroke-miterlimit:4;stroke-dasharray:none;stroke-opacity:1" />
            <path
               style="fill:none;stroke:#ffffff;stroke-width:19.84375;stroke-linecap:round;stroke-linejoin:miter;stroke-miterlimit:4;stroke-dasharray:none;stroke-opacity:1"
               d="M 329.61212,474.43331 H 312.08114"
               id="path922" />
          </g>
        </g>
        <text
           xml:space="preserve"
           style="font-style:normal;font-variant:normal;font-weight:bold;font-stretch:normal;font-size:123.48294067px;line-height:1.25;font-family:Comfortaa;-inkscape-font-specification:'Comfortaa Bold';letter-spacing:0px;word-spacing:0px;fill:#000000;fill-opacity:1;stroke:none;stroke-width:3.08707309"
           x="1340.4762"
           y="380.69321"
           id="text944"><tspan
             id="tspan942"
             x="1340.4762"
             y="380.69321"
             style="font-style:normal;font-variant:normal;font-weight:bold;font-stretch:normal;font-family:Quicksand;-inkscape-font-specification:'Quicksand Bold';fill:#000000;fill-opacity:1;stroke-width:3.08707309">GoBank</tspan></text>
      </g>
    </g>
  </g>
</svg>
