<?xml version="1.0" encoding="UTF-8" standalone="no"?>
<svg
   xmlns:dc="http://purl.org/dc/elements/1.1/"
   xmlns:cc="http://creativecommons.org/ns#"
   xmlns:rdf="http://www.w3.org/1999/02/22-rdf-syntax-ns#"
   xmlns:svg="http://www.w3.org/2000/svg"
   xmlns="http://www.w3.org/2000/svg"
   xmlns:sodipodi="http://sodipodi.sourceforge.net/DTD/sodipodi-0.dtd"
   xmlns:inkscape="http://www.inkscape.org/namespaces/inkscape"
   id="svg8"
   version="1.1"
   viewBox="0 0 343.55084 77.877495"
   height="77.877495mm"
   width="343.55084mm"
   sodipodi:docname="logo.svg"
   inkscape:version="1.0.1 (1.0.1+r75)">
  <sodipodi:namedview
     pagecolor="#ffffff"
     bordercolor="#666666"
     borderopacity="1"
     objecttolerance="10"
     gridtolerance="10"
     guidetolerance="10"
     inkscape:pageopacity="0"
     inkscape:pageshadow="2"
     inkscape:window-width="1366"
     inkscape:window-height="705"
     id="namedview48"
     showgrid="false"
     showguides="false"
     inkscape:zoom="0.45247232"
     inkscape:cx="707.74464"
     inkscape:cy="70.543622"
     inkscape:window-x="0"
     inkscape:window-y="30"
     inkscape:window-maximized="1"
     inkscape:current-layer="svg8" />
  <defs
     id="defs2">
    <clipPath
       id="clipPath1061"
       clipPathUnits="userSpaceOnUse">
      <rect
         style="opacity:1;fill:#00aa88;fill-opacity:1;fill-rule:nonzero;stroke:#000000;stroke-width:0.265;stroke-linecap:butt;stroke-linejoin:miter;stroke-miterlimit:4;stroke-dasharray:none;stroke-dashoffset:0;stroke-opacity:0"
         id="rect1063"
         width="880.67279"
         height="544.28571"
         x="-438.44028"
         y="633.97577" />
    </clipPath>
  </defs>
  <metadata
     id="metadata5">
    <rdf:RDF>
      <cc:Work
         rdf:about="">
        <dc:format>image/svg+xml</dc:format>
        <dc:type
           rdf:resource="http://purl.org/dc/dcmitype/StillImage" />
        <dc:title></dc:title>
      </cc:Work>
    </rdf:RDF>
  </metadata>
  <path
     id="path1538"
     d="m 0,0 v 10.205058 41.884256 13.638953 c 0,5.653563 4.5515265,10.205085 10.205064,10.205085 5.653542,0 10.205061,-4.551522 10.205061,-10.205085 V 52.089314 20.410116 h 21.159948 c 5.653543,0 10.205061,-4.551521 10.205061,-10.205058 C 51.775134,4.5515212 47.223616,0 41.570073,0 H 20.410125 10.205064 Z M 69.591617,0 C 63.938072,0 59.386556,4.5515212 59.386556,10.205058 V 23.515875 45.993049 L 58.894595,45.464914 48.77945,34.608214 45.982207,31.605299 c -1.926932,-2.068222 -4.498557,-3.159284 -7.10551,-3.251491 -2.606945,-0.09218 -5.249159,0.814519 -7.317383,2.741453 -4.136437,3.853868 -4.363921,10.286445 -0.510045,14.422887 l 2.797244,3.002915 18.583362,19.945562 6.956681,7.466727 H 69.591617 79.796163 V 65.728267 23.515875 10.205058 C 79.796163,4.5515212 75.245152,0 69.591617,0 Z"
     style="opacity:1;fill:#3273dc;fill-opacity:1;fill-rule:nonzero;stroke:none;stroke-width:0.0999604;stroke-linecap:butt;stroke-linejoin:miter;stroke-miterlimit:4;stroke-dasharray:none;stroke-dashoffset:0;stroke-opacity:1" />
  <flowRoot
     xml:space="preserve"
     id="flowRoot103"
     style="font-style:normal;font-weight:normal;font-size:40px;line-height:1.25;font-family:sans-serif;letter-spacing:0px;word-spacing:0px;fill:#000000;fill-opacity:1;stroke:none"
     transform="translate(-4.8344922e-6,-3.1637246e-5)"><flowRegion
       id="flowRegion105"><rect
         id="rect107"
         width="31.874088"
         height="90.718559"
         x="495.27429"
         y="94.521729" /></flowRegion><flowPara
       id="flowPara109" /></flowRoot>
  <text
     xml:space="preserve"
     style="font-style:normal;font-weight:normal;font-size:10.5833px;line-height:1.25;font-family:sans-serif;letter-spacing:0px;word-spacing:0px;fill:#000000;fill-opacity:1;stroke:none;stroke-width:0.264583"
     x="121.31052"
     y="77.230766"
     id="text3821" />
  <g
     aria-label="TAUFIK
NURHIDAYAT"
     id="text52"
     style="font-style:normal;font-variant:normal;font-weight:normal;font-stretch:normal;font-size:38.6429px;line-height:1.25;font-family:Raleway;-inkscape-font-specification:Raleway;letter-spacing:0px;word-spacing:0px;stroke-width:0.966077">
    <path
       d="m 124.97696,4.3400627 h -9.77665 V 29.380661 H 112.4953 V 4.3400627 h -9.77665 V 1.944203 h 22.25831 z"
       style="font-style:normal;font-variant:normal;font-weight:normal;font-stretch:normal;font-family:Raleway;-inkscape-font-specification:Raleway;stroke-width:0.966077"
       id="path89" />
    <path
       d="m 135.13521,1.944203 h 2.27993 l 11.39966,27.436458 h -2.85958 l -3.55514,-8.578723 h -12.32709 l -3.5165,8.578723 h -2.89822 z m 6.64658,16.732375 -5.52593,-13.5636573 -5.60322,13.5636573 z"
       style="font-style:normal;font-variant:normal;font-weight:normal;font-stretch:normal;font-family:Raleway;-inkscape-font-specification:Raleway;stroke-width:0.966077"
       id="path91" />
    <path
       d="m 162.93455,29.573876 q -3.246,0 -5.48729,-1.159287 -2.24129,-1.159287 -3.55515,-3.091432 -1.31385,-1.970788 -1.93214,-4.443934 -0.57964,-2.473145 -0.57964,-5.100862 V 1.944203 h 2.66636 v 13.834158 q 0,2.125359 0.42507,4.173433 0.46371,2.048073 1.46843,3.671075 1.00471,1.623002 2.705,2.589074 1.70029,0.92743 4.25072,0.92743 2.62772,0 4.328,-0.966073 1.73894,-1.004715 2.70501,-2.627717 1.00471,-1.623001 1.42979,-3.632432 0.42507,-2.048074 0.42507,-4.13479 V 1.944203 h 2.705 v 13.834158 q 0,2.743646 -0.61829,5.255434 -0.61828,2.511788 -2.00943,4.40529 -1.3525,1.893502 -3.55514,3.014146 -2.20265,1.120645 -5.37137,1.120645 z"
       style="font-style:normal;font-variant:normal;font-weight:normal;font-stretch:normal;font-family:Raleway;-inkscape-font-specification:Raleway;stroke-width:0.966077"
       id="path93" />
    <path
       d="M 180.97535,29.380661 V 1.944203 h 18.00759 V 4.3400627 H 183.68035 V 14.425859 h 12.90673 v 2.241288 h -12.90673 v 12.713514 z"
       style="font-style:normal;font-variant:normal;font-weight:normal;font-stretch:normal;font-family:Raleway;-inkscape-font-specification:Raleway;stroke-width:0.966077"
       id="path95" />
    <path
       d="M 203.76862,29.380661 V 1.944203 h 2.70501 v 27.436458 z"
       style="font-style:normal;font-variant:normal;font-weight:normal;font-stretch:normal;font-family:Raleway;-inkscape-font-specification:Raleway;stroke-width:0.966077"
       id="path97" />
    <path
       d="M 213.35388,29.380661 V 1.9828459 h 2.705 V 17.90372 L 231.16825,1.944203 h 2.9755 l -11.20644,12.056584 11.78609,15.379874 h -3.05279 l -10.47223,-13.756872 -5.1395,5.33272 v 8.424152 z"
       style="font-style:normal;font-variant:normal;font-weight:normal;font-stretch:normal;font-family:Raleway;-inkscape-font-specification:Raleway;stroke-width:0.966077"
       id="path99" />
    <path
       d="m 108.20594,55.23276 v 22.451524 h -2.705 V 50.247826 h 2.24129 l 18.00759,22.876596 V 50.286469 h 2.705 v 27.397815 h -2.51179 z"
       style="font-style:normal;font-variant:normal;font-weight:normal;font-stretch:normal;font-family:Raleway;-inkscape-font-specification:Raleway;stroke-width:0.966077"
       id="path101" />
    <path
       d="m 146.48113,77.877499 q -3.246,0 -5.48729,-1.159287 -2.24129,-1.159287 -3.55515,-3.091432 -1.31386,-1.970788 -1.93214,-4.443933 -0.57965,-2.473146 -0.57965,-5.100863 V 50.247826 h 2.66636 v 13.834158 q 0,2.125359 0.42508,4.173433 0.46371,2.048074 1.46843,3.671075 1.00471,1.623002 2.705,2.589075 1.70029,0.927429 4.25072,0.927429 2.62771,0 4.328,-0.966072 1.73893,-1.004716 2.70501,-2.627717 1.00471,-1.623002 1.42978,-3.632433 0.42507,-2.048074 0.42507,-4.13479 V 50.247826 h 2.70501 v 13.834158 q 0,2.743646 -0.61829,5.255434 -0.61829,2.511789 -2.00943,4.405291 -1.3525,1.893502 -3.55515,3.014146 -2.20264,1.120644 -5.37136,1.120644 z"
       style="font-style:normal;font-variant:normal;font-weight:normal;font-stretch:normal;font-family:Raleway;-inkscape-font-specification:Raleway;stroke-width:0.966077"
       id="path103" />
    <path
       d="M 164.52193,77.684284 V 50.247826 h 11.59287 q 1.77757,0 3.246,0.734215 1.46843,0.734215 2.55043,2.009431 1.12065,1.236573 1.70029,2.782289 0.61829,1.507073 0.61829,3.091432 0,1.970787 -0.77286,3.709718 -0.73422,1.73893 -2.12536,2.93686 -1.3525,1.19793 -3.20736,1.584359 l 6.72386,10.588154 h -3.05279 l -6.45336,-10.124439 h -8.11501 v 10.124439 z m 2.705,-12.520299 h 8.96515 q 1.62301,0 2.82094,-0.888787 1.19793,-0.888786 1.85485,-2.318574 0.65693,-1.46843 0.65693,-3.091431 0,-1.661645 -0.77285,-3.052789 -0.73422,-1.429788 -2.00944,-2.279931 -1.23657,-0.888787 -2.78228,-0.888787 h -8.7333 z"
       style="font-style:normal;font-variant:normal;font-weight:normal;font-stretch:normal;font-family:Raleway;-inkscape-font-specification:Raleway;stroke-width:0.966077"
       id="path105" />
    <path
       d="m 211.37041,50.247826 v 27.436458 h -2.66636 V 64.854842 h -16.26866 v 12.829442 h -2.705 V 50.247826 h 2.705 v 12.211156 h 16.26866 V 50.247826 Z"
       style="font-style:normal;font-variant:normal;font-weight:normal;font-stretch:normal;font-family:Raleway;-inkscape-font-specification:Raleway;stroke-width:0.966077"
       id="path107" />
    <path
       d="M 218.25971,77.684284 V 50.247826 h 2.70501 v 27.436458 z"
       style="font-style:normal;font-variant:normal;font-weight:normal;font-stretch:normal;font-family:Raleway;-inkscape-font-specification:Raleway;stroke-width:0.966077"
       id="path109" />
    <path
       d="M 227.84496,77.684284 V 50.247826 h 9.31294 q 4.36665,0 7.26487,1.854859 2.93686,1.816217 4.40529,4.946291 1.46843,3.091432 1.46843,6.878436 0,4.173433 -1.623,7.264865 -1.58436,3.091432 -4.55987,4.79172 -2.93686,1.700287 -6.95572,1.700287 z m 19.74653,-13.756872 q 0,-3.284646 -1.23658,-5.835077 -1.19793,-2.550432 -3.5165,-3.980219 -2.31857,-1.46843 -5.68051,-1.46843 h -6.60793 v 22.644738 h 6.60793 q 3.40058,0 5.71915,-1.507073 2.31858,-1.507073 3.51651,-4.057504 1.19793,-2.589074 1.19793,-5.796435 z"
       style="font-style:normal;font-variant:normal;font-weight:normal;font-stretch:normal;font-family:Raleway;-inkscape-font-specification:Raleway;stroke-width:0.966077"
       id="path111" />
    <path
       d="m 262.83792,50.247826 h 2.27993 l 11.39965,27.436458 h -2.85957 l -3.55515,-8.578723 H 257.7757 l -3.51651,8.578723 h -2.89821 z m 6.64658,16.732375 -5.52594,-13.563657 -5.60322,13.563657 z"
       style="font-style:normal;font-variant:normal;font-weight:normal;font-stretch:normal;font-family:Raleway;-inkscape-font-specification:Raleway;stroke-width:0.966077"
       id="path113" />
    <path
       d="m 278.03907,50.247826 8.96515,14.761587 9.04244,-14.761587 h 2.93686 l -10.62679,17.234733 v 10.201725 h -2.70501 V 67.405273 L 275.06357,50.247826 Z"
       style="font-style:normal;font-variant:normal;font-weight:normal;font-stretch:normal;font-family:Raleway;-inkscape-font-specification:Raleway;stroke-width:0.966077"
       id="path115" />
    <path
       d="m 308.8773,50.247826 h 2.27993 l 11.39966,27.436458 h -2.85958 l -3.55514,-8.578723 h -12.32709 l -3.5165,8.578723 h -2.89822 z m 6.64658,16.732375 -5.52593,-13.563657 -5.60323,13.563657 z"
       style="font-style:normal;font-variant:normal;font-weight:normal;font-stretch:normal;font-family:Raleway;-inkscape-font-specification:Raleway;stroke-width:0.966077"
       id="path117" />
    <path
       d="m 343.55086,52.643686 h -9.77665 V 77.684284 H 331.0692 V 52.643686 h -9.77665 v -2.39586 h 22.25831 z"
       style="font-style:normal;font-variant:normal;font-weight:normal;font-stretch:normal;font-family:Raleway;-inkscape-font-specification:Raleway;stroke-width:0.966077"
       id="path119" />
  </g>
  <path
     id="rect79"
     style="fill:#3273dc;fill-opacity:1;stroke-width:0.288413"
     d="M 253.76781,1.944203 H 332.97 c 3.06269,0 5.52833,2.4656344 5.52833,5.5283284 V 23.812304 c 0,3.062694 -2.46564,5.528328 -5.52833,5.528328 h -79.20219 c -3.0627,0 -5.52833,-2.465634 -5.52833,-5.528328 V 7.4725314 c 0,-3.062694 2.46563,-5.5283284 5.52833,-5.5283284 z" />
  <g
     aria-label=".WEB.ID"
     id="text238"
     style="font-style:normal;font-variant:normal;font-weight:bold;font-stretch:normal;font-size:20.1879px;line-height:1.25;font-family:Raleway;-inkscape-font-specification:'Raleway Bold';letter-spacing:0px;word-spacing:0px;fill:#ffffff;stroke-width:0.5047">
    <path
       d="m 256.60091,22.809122 v -2.907058 h 2.24085 v 2.907058 z"
       style="font-style:normal;font-variant:normal;font-weight:bold;font-stretch:normal;font-family:Raleway;-inkscape-font-specification:'Raleway Bold';fill:#ffffff;stroke-width:0.5047"
       id="path240" />
    <path
       d="m 265.35898,8.5160885 h 2.58406 l 1.63522,4.7239685 1.6554,-4.7239685 h 2.56387 l -2.44274,6.5005035 1.79672,4.582654 4.05777,-11.1235333 h 3.02819 L 274.5041,22.809122 h -2.40236 l -2.52348,-6.015994 -2.5033,6.015994 H 264.6726 L 258.95942,8.4757127 h 2.98781 l 4.05777,11.1235333 1.79672,-4.582654 z"
       style="font-style:normal;font-variant:normal;font-weight:bold;font-stretch:normal;font-family:Raleway;-inkscape-font-specification:'Raleway Bold';fill:#ffffff;stroke-width:0.5047"
       id="path242" />
    <path
       d="m 291.65846,20.366386 v 2.442736 h -9.95264 V 8.4757127 h 9.77095 v 2.4427363 h -6.98502 v 3.452131 h 6.016 v 2.261045 h -6.016 v 3.734761 z"
       style="font-style:normal;font-variant:normal;font-weight:bold;font-stretch:normal;font-family:Raleway;-inkscape-font-specification:'Raleway Bold';fill:#ffffff;stroke-width:0.5047"
       id="path244" />
    <path
       d="m 305.39758,19.134924 q 0,1.191086 -0.62582,2.01879 -0.62582,0.807516 -1.69578,1.231462 -1.04977,0.423946 -2.30142,0.423946 h -6.92445 V 8.4757127 h 7.6714 q 1.00939,0 1.73616,0.5450733 0.74695,0.5248854 1.13052,1.372777 0.40376,0.827704 0.40376,1.73616 0,1.029583 -0.52489,1.958226 -0.52488,0.908456 -1.53428,1.372777 1.23146,0.363382 1.93804,1.312214 0.72676,0.948831 0.72676,2.361984 z m -2.80611,-0.545073 q 0,-0.545073 -0.22207,-0.969019 -0.22207,-0.444134 -0.60564,-0.706577 -0.36338,-0.262443 -0.84789,-0.262443 h -4.27983 v 3.795326 h 4.13852 q 0.50469,0 0.90845,-0.242255 0.42395,-0.262443 0.6662,-0.686389 0.24226,-0.423946 0.24226,-0.928643 z m -5.95543,-7.731966 v 3.613634 h 3.71457 q 0.46432,0 0.84789,-0.222067 0.38357,-0.222067 0.60564,-0.625825 0.24225,-0.403758 0.24225,-0.948831 0,-0.565261 -0.22206,-0.948831 -0.20188,-0.403758 -0.56526,-0.625825 -0.3432,-0.242255 -0.78733,-0.242255 z"
       style="font-style:normal;font-variant:normal;font-weight:bold;font-stretch:normal;font-family:Raleway;-inkscape-font-specification:'Raleway Bold';fill:#ffffff;stroke-width:0.5047"
       id="path246" />
    <path
       d="m 307.22837,22.809122 v -2.907058 h 2.24086 v 2.907058 z"
       style="font-style:normal;font-variant:normal;font-weight:bold;font-stretch:normal;font-family:Raleway;-inkscape-font-specification:'Raleway Bold';fill:#ffffff;stroke-width:0.5047"
       id="path248" />
    <path
       d="M 312.10596,22.809122 V 8.4757127 h 2.78593 V 22.809122 Z"
       style="font-style:normal;font-variant:normal;font-weight:bold;font-stretch:normal;font-family:Raleway;-inkscape-font-specification:'Raleway Bold';fill:#ffffff;stroke-width:0.5047"
       id="path250" />
    <path
       d="M 317.86267,22.809122 V 8.4757127 h 5.20848 q 2.34179,0 3.91645,0.9690192 1.57465,0.9488311 2.36198,2.5840511 0.78733,1.615032 0.78733,3.593446 0,2.180294 -0.86808,3.795326 -0.86808,1.615032 -2.46292,2.503299 -1.57466,0.888268 -3.73476,0.888268 z m 9.46812,-7.186893 q 0,-1.392965 -0.50469,-2.442735 -0.5047,-1.069959 -1.45353,-1.655408 -0.94883,-0.605637 -2.30142,-0.605637 h -2.42255 v 9.447937 h 2.42255 q 1.39296,0 2.3216,-0.625825 0.94884,-0.625825 1.43335,-1.695783 0.50469,-1.069959 0.50469,-2.422549 z"
       style="font-style:normal;font-variant:normal;font-weight:bold;font-stretch:normal;font-family:Raleway;-inkscape-font-specification:'Raleway Bold';fill:#ffffff;stroke-width:0.5047"
       id="path252" />
  </g>
</svg>
